<svg xmlns="http://www.w3.org/2000/svg" width="256" height="256" viewBox="0 0 256 256">
  <defs>
    <linearGradient id="g" x1="0%" y1="100%" x2="100%" y2="0%">
      <stop offset="0%" stop-color="#0029c1"/>
      <stop offset="28.999999999999996%" stop-color="#3973ff"/>
      <stop offset="100%" stop-color="#0029c1"/>
    </linearGradient>
    <clipPath id="shape">
      <path d="M128,0 L148.05,0.02 L156.35,0.08 L162.72,0.17 L168.07,0.31 L172.78,0.48 L177.03,0.69 L180.92,0.95 L184.54,1.24 L187.91,1.56 L191.1,1.93 L194.1,2.34 L196.96,2.79 L199.69,3.27 L202.29,3.8 L204.79,4.36 L207.18,4.97 L209.48,5.61 L211.7,6.3 L213.83,7.03 L215.88,7.79 L217.86,8.6 L219.78,9.45 L221.62,10.35 L223.41,11.28 L225.13,12.26 L226.79,13.28 L228.4,14.35 L229.95,15.46 L231.45,16.62 L232.89,17.82 L234.29,19.07 L235.63,20.37 L236.93,21.71 L238.18,23.11 L239.38,24.55 L240.54,26.05 L241.65,27.6 L242.72,29.21 L243.74,30.87 L244.72,32.59 L245.65,34.38 L246.55,36.22 L247.4,38.14 L248.21,40.12 L248.97,42.17 L249.7,44.3 L250.39,46.52 L251.03,48.82 L251.64,51.21 L252.2,53.71 L252.73,56.31 L253.21,59.04 L253.66,61.9 L254.07,64.9 L254.44,68.09 L254.76,71.46 L255.05,75.08 L255.31,78.97 L255.52,83.22 L255.69,87.93 L255.83,93.28 L255.92,99.65 L255.98,107.95 L256,128 L256,128 L255.98,148.05 L255.92,156.35 L255.83,162.72 L255.69,168.07 L255.52,172.78 L255.31,177.03 L255.05,180.92 L254.76,184.54 L254.44,187.91 L254.07,191.1 L253.66,194.1 L253.21,196.96 L252.73,199.69 L252.2,202.29 L251.64,204.79 L251.03,207.18 L250.39,209.48 L249.7,211.7 L248.97,213.83 L248.21,215.88 L247.4,217.86 L246.55,219.78 L245.65,221.62 L244.72,223.41 L243.74,225.13 L242.72,226.79 L241.65,228.4 L240.54,229.95 L239.38,231.45 L238.18,232.89 L236.93,234.29 L235.63,235.63 L234.29,236.93 L232.89,238.18 L231.45,239.38 L229.95,240.54 L228.4,241.65 L226.79,242.72 L225.13,243.74 L223.41,244.72 L221.62,245.65 L219.78,246.55 L217.86,247.4 L215.88,248.21 L213.83,248.97 L211.7,249.7 L209.48,250.39 L207.18,251.03 L204.79,251.64 L202.29,252.2 L199.69,252.73 L196.96,253.21 L194.1,253.66 L191.1,254.07 L187.91,254.44 L184.54,254.76 L180.92,255.05 L177.03,255.31 L172.78,255.52 L168.07,255.69 L162.72,255.83 L156.35,255.92 L148.05,255.98 L128,256 L128,256 L107.95,255.98 L99.65,255.92 L93.28,255.83 L87.93,255.69 L83.22,255.52 L78.97,255.31 L75.08,255.05 L71.46,254.76 L68.09,254.44 L64.9,254.07 L61.9,253.66 L59.04,253.21 L56.31,252.73 L53.71,252.2 L51.21,251.64 L48.82,251.03 L46.52,250.39 L44.3,249.7 L42.17,248.97 L40.12,248.21 L38.14,247.4 L36.22,246.55 L34.38,245.65 L32.59,244.72 L30.87,243.74 L29.21,242.72 L27.6,241.65 L26.05,240.54 L24.55,239.38 L23.11,238.18 L21.71,236.93 L20.37,235.63 L19.07,234.29 L17.82,232.89 L16.62,231.45 L15.46,229.95 L14.35,228.4 L13.28,226.79 L12.26,225.13 L11.28,223.41 L10.35,221.62 L9.45,219.78 L8.6,217.86 L7.79,215.88 L7.03,213.83 L6.3,211.7 L5.61,209.48 L4.97,207.18 L4.36,204.79 L3.8,202.29 L3.27,199.69 L2.79,196.96 L2.34,194.1 L1.93,191.1 L1.56,187.91 L1.24,184.54 L0.95,180.92 L0.69,177.03 L0.48,172.78 L0.31,168.07 L0.17,162.72 L0.08,156.35 L0.02,148.05 L0,128 L0,128 L0.02,107.95 L0.08,99.65 L0.17,93.28 L0.31,87.93 L0.48,83.22 L0.69,78.97 L0.95,75.08 L1.24,71.46 L1.56,68.09 L1.93,64.9 L2.34,61.9 L2.79,59.04 L3.27,56.31 L3.8,53.71 L4.36,51.21 L4.97,48.82 L5.61,46.52 L6.3,44.3 L7.03,42.17 L7.79,40.12 L8.6,38.14 L9.45,36.22 L10.35,34.38 L11.28,32.59 L12.26,30.87 L13.28,29.21 L14.35,27.6 L15.46,26.05 L16.62,24.55 L17.82,23.11 L19.07,21.71 L20.37,20.37 L21.71,19.07 L23.11,17.82 L24.55,16.62 L26.05,15.46 L27.6,14.35 L29.21,13.28 L30.87,12.26 L32.59,11.28 L34.38,10.35 L36.22,9.45 L38.14,8.6 L40.12,7.79 L42.17,7.03 L44.3,6.3 L46.52,5.61 L48.82,4.97 L51.21,4.36 L53.71,3.8 L56.31,3.27 L59.04,2.79 L61.9,2.34 L64.9,1.93 L68.09,1.56 L71.46,1.24 L75.08,0.95 L78.97,0.69 L83.22,0.48 L87.93,0.31 L93.28,0.17 L99.65,0.08 L107.95,0.02 L128,0 Z"/>
    </clipPath>
  </defs>
  <rect width="256" height="256" fill="url(#g)" clip-path="url(#shape)"/>
  <polygon points="191.36,2.56 223.04,34.24 96.32,160.96 159.68,224.32 128,256 32.96,160.96" fill="white" clip-path="url(#shape)"/>
</svg>